<svg width="38" height="42" viewBox="0 0 38 42" fill="none" xmlns="http://www.w3.org/2000/svg">
<path d="M12.204 32.604H7.704C5.808 32.604 4.392 32.196 3.456 31.38C2.544 30.54 2.088 29.268 2.088 27.564V14.136C2.088 12.408 2.544 11.136 3.456 10.32C4.392 9.504 5.808 9.096 7.704 9.096H17.388V12.912H6.84C6.552 12.912 6.408 13.056 6.408 13.344V28.356C6.408 28.644 6.552 28.788 6.84 28.788H13.32C13.608 28.788 13.752 28.644 13.752 28.356V22.668L14.184 23.352H10.548V19.788H17.82V27.564C17.82 29.268 17.352 30.54 16.416 31.38C15.504 32.196 14.1 32.604 12.204 32.604Z" fill="#BD1DBD"/>
<path d="M23.22 33.22H18.774V9.09H23.22V33.22ZM27.514 21.478H22.46V19.084H27.666C27.8433 19.084 27.9573 19.046 28.008 18.97C28.0587 18.894 28.1093 18.78 28.16 18.628L32.112 9.09H36.596L32.948 17.716C32.6187 18.476 32.3147 19.1093 32.036 19.616C31.7573 20.1227 31.4407 20.5153 31.086 20.794C30.7313 21.0473 30.2627 21.2247 29.68 21.326C29.1227 21.4273 28.4007 21.478 27.514 21.478ZM27.704 22.998H22.346V20.642H27.742C28.9327 20.642 29.832 20.7433 30.44 20.946C31.0733 21.1487 31.58 21.5287 31.96 22.086C32.3653 22.618 32.8087 23.3907 33.29 24.404L37.47 33.22H32.72L28.16 23.454C28.1093 23.2767 28.0587 23.1627 28.008 23.112C27.9573 23.036 27.856 22.998 27.704 22.998Z" fill="#BD1DBD"/>
<path d="M16 11H21" stroke="#BD1DBD" stroke-width="3.81"/>
</svg>
