<svg width="37" height="42" viewBox="0 0 37 42" fill="none" xmlns="http://www.w3.org/2000/svg">
<path d="M12.6 33.032H6.804C5.244 33.032 4.092 32.72 3.348 32.096C2.604 31.448 2.232 30.38 2.232 28.892V13.808C2.232 12.32 2.604 11.264 3.348 10.64C4.092 9.992 5.244 9.668 6.804 9.668H16.776V12.332H5.58C5.364 12.332 5.256 12.452 5.256 12.692V30.008C5.256 30.248 5.364 30.368 5.58 30.368H13.932C14.172 30.368 14.292 30.248 14.292 30.008V22.772L14.652 23.276H10.224V20.792H17.172V28.892C17.172 30.38 16.8 31.448 16.056 32.096C15.312 32.72 14.16 33.032 12.6 33.032Z" fill="#6767D9"/>
<path d="M22.004 33.8H18.926V9.67H22.004V33.8ZM26.83 21.944H21.51V20.234H27.552C27.6787 20.234 27.7547 20.2087 27.78 20.158C27.8307 20.082 27.8813 19.9807 27.932 19.854L32.34 9.67H35.456L31.58 18.524C31.3013 19.208 31.0353 19.778 30.782 20.234C30.5287 20.6647 30.2373 21.0067 29.908 21.26C29.604 21.5133 29.1987 21.6907 28.692 21.792C28.2107 21.8933 27.59 21.944 26.83 21.944ZM27.552 22.932H21.282V21.222H27.02C28.0587 21.222 28.844 21.3233 29.376 21.526C29.908 21.7287 30.3387 22.0833 30.668 22.59C31.0227 23.0713 31.4153 23.7427 31.846 24.604L36.406 33.8H33.062L27.932 23.274C27.8813 23.1473 27.8307 23.0587 27.78 23.008C27.7547 22.9573 27.6787 22.932 27.552 22.932Z" fill="#6767D9"/>
<path d="M16 11H21" stroke="#6767D9" stroke-width="2.65"/>
</svg>
